<svg width="80" height="80" viewBox="0 0 80 80" fill="none" xmlns="http://www.w3.org/2000/svg">
<g clip-path="url(#clip0_331_3408)">
<path d="M63.6828 9.77194C59.0039 5.08234 53.038 1.88741 46.5414 0.592086C40.0448 -0.703241 33.3098 -0.0406456 27.1902 2.49589C21.0705 5.03243 15.8417 9.32871 12.1664 14.8402C8.49112 20.3517 6.53486 26.8302 6.54557 33.4547C6.52753 37.8523 7.38188 42.2098 9.05916 46.275C10.7365 50.3402 13.2034 54.0323 16.3171 57.1377L38.5998 79.4204C38.7836 79.6043 39.0019 79.7501 39.2422 79.8496C39.4824 79.9492 39.7399 80.0004 39.9999 80.0004C40.26 80.0004 40.5175 79.9492 40.7577 79.8496C40.998 79.7501 41.2162 79.6043 41.4001 79.4204L63.6828 57.1377C69.9412 50.8447 73.4543 42.3302 73.4543 33.4548C73.4543 24.5795 69.9412 16.065 63.6828 9.77194ZM39.9999 54.6732C28.1859 54.6732 18.5745 45.0616 18.5745 33.2476C18.5745 21.4335 28.1859 11.8219 39.9999 11.8219C51.814 11.8219 61.4256 21.4333 61.4256 33.2476C61.4256 45.0618 51.814 54.6732 39.9999 54.6732Z" fill="#2D2E2F"/>
<circle cx="39.9984" cy="34" r="22" fill="white"/>
</g>
<defs>
<clipPath id="clip0_331_3408">
<rect width="80" height="80" fill="white"/>
</clipPath>
</defs>
</svg>
