<svg width="241" height="24" viewBox="0 0 241 24" fill="none" xmlns="http://www.w3.org/2000/svg">
<path d="M4.54791 16.1432V9.54991L1.61188 10.0131C0.848121 10.1332 0.133929 9.59664 0.0164267 8.8146C-0.100932 8.03257 0.423111 7.30129 1.18688 7.18097L5.63227 6.47994L20.4799 1.84282L21.2151 1.62104C24.8995 0.546121 28.713 2.22938e-05 32.5465 0C36.1439 0 39.7263 0.480955 43.2022 1.43004L56.7441 5.12757V3.58209C56.7441 2.79077 57.3706 2.14927 58.1434 2.14925C58.9162 2.14925 59.5428 2.79076 59.5428 3.58209V5.89156L64.381 7.21245L64.517 7.25723C65.1805 7.51421 65.5592 8.2495 65.3725 8.96642C65.3725 8.96642 64.4998 10.1277 63.7996 10.0124L63.6595 9.98158L42.4807 4.19846C39.2401 3.31364 35.9003 2.86567 32.5465 2.86567C28.9724 2.86569 25.4168 3.37466 21.9817 4.37687L21.2964 4.58396L7.34661 8.94123V16.1432C7.34661 17.3847 7.79846 18.582 8.61409 19.5007L8.79174 19.6903C9.70184 20.6129 10.9336 21.1343 12.2211 21.1343H57.3734C58.1462 21.1343 58.7727 21.7758 58.7727 22.5672C58.7727 23.3585 58.1462 24 57.3734 24H12.2211C10.127 24 8.12682 23.1237 6.68179 21.58L6.54308 21.4282C5.25922 19.982 4.54791 18.0975 4.54791 16.1432ZM69.2678 22.209V15.403H50.7264H32.1851C31.4122 15.403 30.7857 14.7615 30.7857 13.9701C30.7857 13.1788 31.4122 12.5373 32.1851 12.5373H78.3636C79.1364 12.5373 79.7629 13.1788 79.7629 13.9701C79.7629 14.7615 79.1364 15.403 78.3636 15.403H72.0665V22.209C72.0665 23.0003 71.44 23.6418 70.6672 23.6418C69.8943 23.6418 69.2678 23.0003 69.2678 22.209Z" fill="url(#paint0_linear_331_2048)"/>
<path d="M228.659 20.2451V3.75482H234.46C235.726 3.75482 236.775 3.98833 237.607 4.45534C238.438 4.92235 239.061 5.56113 239.474 6.37169C239.887 7.17688 240.094 8.08406 240.094 9.09323C240.094 10.1078 239.885 11.0203 239.466 11.8309C239.053 12.6361 238.428 13.2748 237.591 13.7472C236.759 14.2142 235.713 14.4477 234.452 14.4477H230.463V12.3381H234.229C235.029 12.3381 235.678 12.1986 236.176 11.9194C236.674 11.6349 237.04 11.2485 237.273 10.76C237.506 10.2715 237.623 9.71591 237.623 9.09323C237.623 8.47055 237.506 7.91765 237.273 7.43454C237.04 6.95143 236.672 6.57299 236.168 6.29922C235.67 6.02546 235.014 5.88858 234.198 5.88858H231.114V20.2451H228.659Z" fill="#2D2E2F"/>
<path d="M225.597 12C225.597 13.7607 225.28 15.2744 224.644 16.5413C224.008 17.8027 223.137 18.7743 222.029 19.4561C220.928 20.1324 219.675 20.4706 218.271 20.4706C216.862 20.4706 215.603 20.1324 214.496 19.4561C213.394 18.7743 212.525 17.8 211.89 16.5332C211.254 15.2664 210.936 13.7553 210.936 12C210.936 10.2393 211.254 8.72825 211.89 7.46679C212.525 6.19995 213.394 5.22836 214.496 4.552C215.603 3.87027 216.862 3.52941 218.271 3.52941C219.675 3.52941 220.928 3.87027 222.029 4.552C223.137 5.22836 224.008 6.19995 224.644 7.46679C225.28 8.72825 225.597 10.2393 225.597 12ZM223.166 12C223.166 10.658 222.951 9.52807 222.522 8.61015C222.098 7.68687 221.516 6.98904 220.774 6.51666C220.038 6.03892 219.203 5.80004 218.271 5.80004C217.333 5.80004 216.496 6.03892 215.76 6.51666C215.023 6.98904 214.44 7.68687 214.011 8.61015C213.588 9.52807 213.376 10.658 213.376 12C213.376 13.342 213.588 14.4746 214.011 15.3979C214.44 16.3158 215.023 17.0136 215.76 17.4914C216.496 17.9638 217.333 18.2 218.271 18.2C219.203 18.2 220.038 17.9638 220.774 17.4914C221.516 17.0136 222.098 16.3158 222.522 15.3979C222.951 14.4746 223.166 13.342 223.166 12Z" fill="#2D2E2F"/>
<path d="M196.781 5.89663V3.75482H209.377V5.89663H204.299V20.2451H201.851V5.89663H196.781Z" fill="#2D2E2F"/>
<path d="M192.313 20.2451L186.846 12.8535H185.114V20.2451H182.658V3.75482H185.114V10.7197H185.916L192.067 3.75482H195.063L188.554 11.1384L195.309 20.2451H192.313Z" fill="#2D2E2F"/>
<path d="M169.175 20.2451V3.75482H179.378V5.89663H171.63V10.921H178.846V13.0548H171.63V18.1033H179.474V20.2451H169.175Z" fill="#2D2E2F"/>
<path d="M153.796 5.89663V3.75482H166.391V5.89663H161.314V20.2451H158.866V5.89663H153.796Z" fill="#2D2E2F"/>
<path d="M137.881 3.75482H140.313V15.8649H140.464L148.744 3.75482H151.017V20.2451H148.561V8.15116H148.41L140.146 20.2451H137.881V3.75482Z" fill="#2D2E2F"/>
<path d="M124.686 3.75482L128.58 10.2044H128.707L132.601 3.75482H135.445L130.376 12L135.477 20.2451H132.616L128.707 13.8841H128.58L124.67 20.2451H121.809L126.998 12L121.841 3.75482H124.686Z" fill="#2D2E2F"/>
<path d="M108.663 20.2451V3.75482H114.464C115.731 3.75482 116.78 3.98833 117.611 4.45534C118.443 4.92235 119.066 5.56113 119.479 6.37169C119.892 7.17688 120.099 8.08406 120.099 9.09323C120.099 10.1078 119.889 11.0203 119.471 11.8309C119.058 12.6361 118.432 13.2748 117.595 13.7472C116.764 14.2142 115.717 14.4477 114.456 14.4477H110.467V12.3381H114.234C115.034 12.3381 115.683 12.1986 116.181 11.9194C116.679 11.6349 117.044 11.2485 117.278 10.76C117.511 10.2715 117.627 9.71591 117.627 9.09323C117.627 8.47055 117.511 7.91765 117.278 7.43454C117.044 6.95143 116.676 6.57299 116.173 6.29922C115.675 6.02546 115.018 5.88858 114.202 5.88858H111.119V20.2451H108.663Z" fill="#2D2E2F"/>
<path d="M94.3694 20.2451H91.7629L97.6196 3.75482H100.457L106.313 20.2451H103.707L99.1056 6.75013H98.9784L94.3694 20.2451ZM94.8065 13.7875H103.262V15.881H94.8065V13.7875Z" fill="#2D2E2F"/>
<defs>
<linearGradient id="paint0_linear_331_2048" x1="0.046875" y1="-1.1893e-08" x2="80.0469" y2="24" gradientUnits="userSpaceOnUse">
<stop stop-color="#EAA63F"/>
<stop offset="1" stop-color="#EA833F"/>
</linearGradient>
</defs>
</svg>
