<svg width="20" height="20" viewBox="0 0 20 20" fill="none" xmlns="http://www.w3.org/2000/svg">
<path d="M16.6001 10.6633L10.1891 17.0695C9.30979 17.9486 8.11725 18.4423 6.87387 18.4421C5.63049 18.4418 4.43812 17.9477 3.55907 17.0683C2.68002 16.189 2.1863 14.9964 2.18652 13.7531C2.18674 12.5097 2.68088 11.3173 3.56024 10.4383L11.229 2.7906C11.8153 2.20464 12.6103 1.87557 13.4392 1.87579C13.8496 1.8759 14.256 1.95685 14.6352 2.11401C15.0143 2.27118 15.3588 2.50148 15.6489 2.79178C15.9391 3.08207 16.1692 3.42667 16.3261 3.80589C16.4831 4.18512 16.5638 4.59155 16.5637 5.00198C16.5636 5.41241 16.4827 5.81879 16.3255 6.19794C16.1683 6.57708 15.938 6.92156 15.6477 7.2117L15.6345 7.2242L8.15009 14.4289C8.06134 14.5142 7.95665 14.5813 7.842 14.6262C7.72734 14.6711 7.60497 14.693 7.48186 14.6906C7.35875 14.6882 7.23731 14.6616 7.12449 14.6122C7.01167 14.5629 6.90966 14.4918 6.82431 14.4031C6.73895 14.3144 6.6719 14.2097 6.627 14.095C6.5821 13.9804 6.56022 13.858 6.56262 13.7349C6.56501 13.6118 6.59163 13.4903 6.64095 13.3775C6.69028 13.2647 6.76134 13.1627 6.85009 13.0773L14.3274 5.88045C14.5612 5.64527 14.6919 5.32689 14.6909 4.99533C14.6898 4.66377 14.5571 4.3462 14.322 4.11248C14.2055 3.99675 14.0674 3.90509 13.9155 3.84274C13.7637 3.78038 13.601 3.74855 13.4368 3.74905C13.1053 3.75008 12.7877 3.88277 12.554 4.11795L4.88524 11.7633C4.35781 12.2909 4.06159 13.0064 4.06174 13.7525C4.06181 14.1219 4.13464 14.4877 4.27607 14.8289C4.4175 15.1702 4.62477 15.4802 4.88602 15.7414C5.14728 16.0025 5.45742 16.2097 5.79873 16.351C6.14005 16.4923 6.50585 16.565 6.87525 16.5649C7.62129 16.5647 8.33672 16.2682 8.86415 15.7406L15.2751 9.33435C15.3623 9.24715 15.4658 9.17797 15.5798 9.13078C15.6937 9.08358 15.8158 9.05929 15.9391 9.05929C16.0625 9.05929 16.1846 9.08358 16.2985 9.13078C16.4125 9.17797 16.516 9.24715 16.6032 9.33435C16.6904 9.42156 16.7596 9.52509 16.8068 9.63903C16.854 9.75297 16.8783 9.87509 16.8783 9.99842C16.8783 10.1217 16.854 10.2439 16.8068 10.3578C16.7596 10.4717 16.6904 10.5753 16.6032 10.6625L16.6001 10.6633Z" fill="white"/>
</svg>
