<svg width="24" height="24" viewBox="0 0 24 24" fill="none" xmlns="http://www.w3.org/2000/svg">
<path fill-rule="evenodd" clip-rule="evenodd" d="M17.821 16.1211C17.58 16.8033 16.622 17.3677 15.858 17.5327C15.335 17.6437 14.653 17.7316 12.355 16.7793C9.774 15.71 6.19 11.901 6.19 9.36621C6.19 8.07582 6.934 6.57324 8.235 6.57324C8.861 6.57324 8.999 6.58545 9.205 7.07959C9.446 7.66177 10.034 9.09612 10.104 9.24316C10.393 9.84634 9.80999 10.1994 9.38699 10.7246C9.25199 10.8826 9.099 11.0536 9.27 11.3477C9.44 11.6357 10.028 12.5941 10.892 13.3633C12.008 14.3576 12.913 14.675 13.237 14.8101C13.478 14.9101 13.766 14.8868 13.942 14.6987C14.165 14.4577 14.442 14.0577 14.724 13.6636C14.923 13.3815 15.176 13.3463 15.441 13.4463C15.62 13.5083 17.895 14.5648 17.991 14.7339C18.062 14.8569 18.062 15.4389 17.821 16.1211ZM12.002 2H11.997C6.48399 2 2 6.48535 2 12C2 14.1867 2.70501 16.2153 3.90401 17.8608L2.658 21.5767L6.50101 20.3486C8.08201 21.395 9.969 22 12.002 22C17.515 22 22 17.5147 22 12C22 6.48535 17.515 2 12.002 2Z" fill="#38BE2F"/>
</svg>
