<svg width="644" height="152" fill="none" xmlns="http://www.w3.org/2000/svg"><g clip-path="url(#clip0)"><path d="M196.587 132.036v18.482H1.48V1.482h317.506v18.284" stroke="#DB4C40" stroke-width="3" stroke-miterlimit="10"/><path d="M73.694 31.922v36.172H65.89V52.973H44.453v15.12h-7.805v-36.17h7.805v14.132H65.89V31.922h7.804zm45.15 0v6.82H95.727v7.807h21.635l-2.766 6.621H95.727v8.104h24.697v6.82h-32.6V31.922h31.02zm45.637 8.993a25.093 25.093 0 00-12.349-3.261c-8.792 0-14.225 4.744-14.225 11.86 0 7.61 6.125 12.55 15.213 12.55 5.039 0 9.978-1.482 13.831-4.15v7.807c-4.248 2.175-9.089 3.262-14.127 3.262-13.633 0-22.82-7.709-22.82-19.272 0-11.168 8.594-18.679 22.227-18.679 4.94 0 9.879.988 15.016 3.262l-2.766 6.621zm44.457-8.993v6.918h-14.126v29.254h-7.706V38.84h-14.028v-6.918h35.86zm.593 36.172l17.486-36.172h9.187l17.486 36.172h-8.496l-3.655-7.511h-20.351l-3.556 7.51h-8.101zm14.522-14.034h14.917l-7.508-15.615-7.409 15.615zm75.571-22.138v36.172h-7.805V52.973h-21.338v15.12h-7.903v-36.17h7.903v14.132h21.338V31.922h7.805zm35.664 0l12.942 29.352h4.149l-.791 13.145h-6.618v-6.325h-29.341l-.592 6.325h-6.619V61.274h4.149l12.941-29.352h9.78zm-14.423 29.352h19.066l-9.582-21.94-9.484 21.94zm35.069 6.82l17.485-36.172h9.187l17.486 36.172h-8.496l-3.655-7.511h-20.35l-3.557 7.51h-8.1zm14.521-14.034h14.917l-7.507-15.615-7.41 15.615zm60.46-22.138c8.2 0 13.337 4.546 13.337 11.86 0 7.214-5.038 11.563-13.337 11.563h-11.558l2.964-6.82h9.187c3.26 0 4.939-1.976 4.939-4.941 0-3.262-2.074-4.843-5.136-4.843h-14.424v29.353h-7.903V31.922h21.931zm55.023 0v6.918h-14.126v29.254h-7.805V38.84h-13.929v-6.918h35.86zm45.838 0v36.172h-7.804V52.973h-21.437v15.12h-7.805v-36.17h7.805v14.132h21.437V31.922h7.804zm21.932 0v29.352h13.929c3.556 0 5.631-1.877 5.631-4.842 0-3.064-2.075-4.942-5.631-4.942h-11.46l2.865-6.72h8.595c8.298 0 13.435 4.348 13.435 11.662 0 7.313-5.137 11.76-13.435 11.76h-21.832v-36.27h7.903zm43.565 0v36.172h-7.804V31.922h7.804zm45.046 0v6.82h-23.116v7.807h21.634l-2.667 6.621h-18.967v8.104h24.796v6.82h-32.601V31.922h30.921zM428.445 84.796v36.172h-7.804V84.796h7.804zm27.661 0l-15.905 16.702 17.189 19.47h-10.077l-16.794-19.173 16.103-17h9.484zm16.496 36.172l7.113-13.54-4.248.791-14.522-23.423h8.99l11.756 19.074 9.879-19.074h8.693l-19.362 36.172h-8.299zm71.226-36.172l-14.423 17.987 15.115 18.185h-9.78l-11.064-13.244-10.571 13.244h-9.187l15.115-18.778-14.424-17.394h9.781l10.273 12.354 9.978-12.354h9.187zm47.124 0v36.172h-7.804v-15.121h-21.339v15.121h-7.903V84.796h7.903v14.132h21.339V84.796h7.804zm22.029 0v25.399l21.141-25.4h7.804v36.173h-7.804v-25.3l-21.141 25.3h-7.903V84.796h7.903z" fill="#1B2026"/></g><defs><clipPath id="clip0"><path fill="#fff" d="M0 0h644v152H0z"/></clipPath></defs></svg>